<svg width="21" height="21" viewBox="0 0 21 21" fill="none" xmlns="http://www.w3.org/2000/svg">
<path d="M13.1687 7.46987L16.2618 4.375H12.25V2.625H19.25V9.625H17.5V5.61225L14.4051 8.70713C15.4147 10.0306 15.8837 11.6882 15.717 13.3445C15.5504 15.0007 14.7606 16.5317 13.5075 17.6275C12.2545 18.7233 10.6318 19.3019 8.96817 19.2463C7.30451 19.1907 5.72416 18.5049 4.54712 17.3279C3.37007 16.1508 2.6843 14.5705 2.62867 12.9068C2.57304 11.2431 3.1517 9.6205 4.24748 8.36745C5.34326 7.1144 6.87427 6.32459 8.5305 6.15794C10.1867 5.99129 11.8444 6.46025 13.1678 7.46987M9.18747 17.5C10.4638 17.5 11.6879 16.993 12.5904 16.0905C13.4929 15.1879 14 13.9639 14 12.6875C14 11.4111 13.4929 10.1871 12.5904 9.28455C11.6879 8.38203 10.4638 7.875 9.18747 7.875C7.91112 7.875 6.68704 8.38203 5.78452 9.28455C4.882 10.1871 4.37497 11.4111 4.37497 12.6875C4.37497 13.9639 4.882 15.1879 5.78452 16.0905C6.68704 16.993 7.91112 17.5 9.18747 17.5Z" fill="#1E3B79"/>
</svg>
